<?xml version="1.0" encoding="utf-8"?>
<!DOCTYPE svg PUBLIC "-//W3C//DTD SVG 20010904//EN" "http://www.w3.org/TR/2001/REC-SVG-20010904/DTD/svg10.dtd">
<svg version="1.0" xmlns="http://www.w3.org/2000/svg" width="249px" height="300px" viewBox="0 0 249 300" preserveAspectRatio="xMidYMid meet">
 <g fill="#f9f9f9">
  <path d="M0 150 l0 -150 124.5 0 124.5 0 0 150 0 150 -124.5 0 -124.5 0 0 -150z m131.3 91.8 c2.5 -1.8 6.5 -4.9 8.9 -6.9 2.4 -2 6.5 -4.4 9.1 -5.3 5.4 -1.8 15 -2.1 21.5 -0.5 9.8 2.2 17.3 -2.6 21.7 -14.1 4.4 -11.4 12.5 -19 24.8 -22.9 2.1 -0.7 5.1 -2.4 6.8 -3.8 5.4 -4.6 5.9 -6.5 5.2 -22 -0.6 -13.5 -0.5 -14.2 2 -19.4 1.4 -3 4.5 -7.8 7 -10.8 2.5 -3 4.9 -6.6 5.2 -8 0.4 -1.4 1.2 -2.9 1.8 -3.3 0.8 -0.5 0.9 -1.1 0.2 -1.5 -0.6 -0.5 -1.6 -2.1 -2.3 -3.6 -0.6 -1.5 -3.2 -4.9 -5.6 -7.5 -7.8 -8.4 -8.1 -9.5 -8.1 -28.2 0 -19.1 -0.4 -20.2 -9 -24.3 -2.7 -1.4 -8 -3.9 -11.8 -5.7 -3.7 -1.8 -7.9 -4.6 -9.4 -6.4 -2.7 -3.2 -8.3 -14.5 -8.3 -16.9 0 -2 -5.9 -8.6 -9.2 -10.3 -2.6 -1.3 -4 -1.4 -9.8 -0.3 -8.9 1.6 -20.3 0.8 -26.2 -1.9 -2.6 -1.1 -6.9 -4 -9.5 -6.5 -9.2 -8.4 -8.3 -8.3 -18.2 -1.9 -15.6 10.2 -18.1 11.2 -28.5 11.2 -5 0 -11 -0.5 -13.4 -1 -8.3 -2 -14 2.9 -18.8 16 -3.8 10.2 -11 17.5 -20.5 20.8 -15.2 5.3 -17 8.3 -16.2 27.2 0.5 12.5 0.4 14 -1.6 18.5 -1.2 2.7 -3.4 6.5 -4.9 8.4 -1.5 2 -4.4 6.2 -6.4 9.3 l-3.8 5.8 6.3 7.8 c10.5 13 12.7 20.4 10.7 35.8 -1 7.8 -1 9.5 0.3 12 2.5 4.8 6.6 8.2 12.6 10.4 14.2 5.4 18.8 9.8 23.1 22 2.8 8.1 5.8 12.2 10.6 14.5 3.3 1.5 4.5 1.6 11 0.5 14 -2.4 24.8 0.4 36.4 9.4 6.2 4.8 9 6.5 10.6 6.6 0.7 0 3.2 -1.5 5.7 -3.2z"/>
  <path d="M87 211.5 c0 -3.3 0.2 -3.5 3.5 -3.5 3.3 0 3.5 0.2 3.5 3.5 0 3.3 -0.2 3.5 -3.5 3.5 -3.3 0 -3.5 -0.2 -3.5 -3.5z"/>
  <path d="M128 209.5 c0 -3.4 0.1 -3.5 4 -3.5 3.9 0 4 0.1 4 3.5 0 3.4 -0.1 3.5 -4 3.5 -3.9 0 -4 -0.1 -4 -3.5z"/>
  <path d="M78 207.5 c0 -3.3 0.2 -3.5 3.5 -3.5 3.3 0 3.5 0.2 3.5 3.5 0 3.3 -0.2 3.5 -3.5 3.5 -3.3 0 -3.5 -0.2 -3.5 -3.5z"/>
  <path d="M133.4 201.5 c-0.4 -0.9 -1.9 -1.5 -3.5 -1.5 -2.8 0 -2.9 -0.2 -2.9 -5 0 -3.8 0.4 -5 1.5 -5 1.9 0 2 -2.6 0.1 -3.3 -2 -0.8 -2.6 0.2 -2.6 4 0 3.2 -0.1 3.3 -4 3.3 -3.6 0 -4 -0.2 -4 -2.5 0 -1.6 -0.6 -2.5 -1.5 -2.5 -0.8 0 -1.5 0.7 -1.5 1.6 0 0.9 -0.8 2.9 -1.7 4.5 -1.3 2.2 -2.5 2.9 -4.9 2.9 -3.4 0 -4.4 -1.3 -4.4 -6 l0 -2.8 -10 0.1 -10 0.2 0 3.2 c0 3.2 -0.2 3.3 -4 3.3 -3.8 0 -4 -0.2 -4 -3 0 -3.1 -0.6 -3.4 -7.7 -4.3 -1.8 -0.2 -3.3 0 -3.3 0.5 0 0.4 -1.8 0.8 -4 0.8 -3.9 0 -4 -0.1 -4 -3.5 0 -3.3 0.2 -3.5 3.3 -3.5 l3.2 0 2.9 -12.8 c1.6 -7 2.8 -15.1 2.7 -17.9 l-0.2 -5.3 3.6 0 c1.9 0 3.5 0.5 3.5 1 0 0.6 1.4 1 3 1 1.7 0 3 0.5 3 1 0 0.6 0.7 1 1.5 1 0.8 0 1.5 0.9 1.5 2 0 3.1 2.8 2.4 3.2 -0.7 0.2 -2 0.9 -2.9 2.6 -3.1 1.2 -0.2 2.2 -1 2.2 -1.8 0 -0.8 0.5 -1.4 1 -1.4 0.6 0 1 -1.1 1 -2.5 0 -2.3 0.4 -2.5 4.4 -2.5 3.8 0 4.5 0.3 4.9 2.3 0.3 1.6 0.5 1.3 0.6 -1 0.1 -3.1 -0.1 -3.3 -3.9 -3.9 -3.9 -0.6 -4 -0.8 -4 -4.5 0 -3.5 0.3 -3.9 2.5 -3.9 1.8 0 2.5 -0.5 2.5 -2 0 -1.1 -0.4 -2 -1 -2 -0.5 0 -1 -0.9 -1 -2 0 -1.6 -0.7 -2 -3 -2 -2.7 0 -3 0.3 -3 3.3 0 1.7 -0.3 4.9 -0.6 7 -0.6 3.4 -0.9 3.7 -4 3.7 -2.4 0 -3.4 -0.5 -3.4 -1.5 0 -0.9 -0.9 -1.5 -2.5 -1.5 -2.4 0 -2.5 -0.3 -2.5 -5.5 l0 -5.5 6.5 0 6.5 0 0 -4.5 c0 -3.8 0.3 -4.5 2 -4.5 1.1 0 2 -0.3 2 -0.7 -0.1 -0.5 -1.5 -7.1 -3.3 -14.8 -2.5 -10.8 -3.7 -14.1 -5 -14.3 -1.2 -0.2 -1.7 0.3 -1.7 1.7 0 1.7 -0.6 2.1 -3.5 2.1 -3.4 0 -3.5 -0.1 -3.5 -4 0 -3.9 0.1 -4 3.5 -4 2.4 0 3.5 -0.5 3.5 -1.5 0 -0.8 0.3 -1.5 0.8 -1.5 0.4 0 0.5 -2.3 0.3 -5.1 -0.4 -6 0.4 -6.9 6.7 -6.9 2.9 0 4.4 0.5 4.8 1.5 0.4 0.8 1.4 1.5 2.4 1.5 1 0 2.4 0.7 3.1 1.6 1.2 1.4 1.4 1.4 2 -0.3 0.4 -1 0.8 -3.9 0.8 -6.5 l0.1 -4.8 4 0 c4 0 4 0 4 3.9 l0 4 5.5 -0.6 c4.5 -0.5 5.6 -0.3 6.1 1.1 0.9 2.3 4.1 2 4.9 -0.5 0.7 -2.3 2.4 -2.3 13.8 -0.3 3.3 0.6 3.7 0.4 3.7 -1.5 0 -1.8 0.6 -2.1 4.6 -2.1 l4.5 0 -0.3 3.8 c-0.3 3.4 -0.6 3.7 -3.5 4 -3.3 0.3 -4.9 3.2 -1.8 3.2 0.8 0 1.5 0.7 1.5 1.5 0 0.8 0.9 1.5 2 1.5 1.1 0 2 -0.4 2 -1 0 -0.5 1.4 -1 3 -1 2.5 0 3 -0.4 3 -2.5 0 -2.2 0.4 -2.5 4 -2.5 l4 0 0 4.5 c0 4.3 -0.1 4.5 -2.9 4.5 -2 0 -3 0.6 -3.4 2 -0.4 1.5 -1.4 2 -4 2 -2 0 -3.9 0.5 -4.2 1 -0.3 0.6 -1.5 1 -2.6 1 -1.9 0 -2.4 1.5 -1.3 4.4 0.4 1 1.8 1.6 4 1.6 3.4 0 3.4 0.1 3.4 4.5 0 4.2 -0.2 4.5 -2.6 4.5 -2 0 -2.5 0.4 -2 1.6 0.3 0.9 0.6 1.9 0.6 2.4 0 0.5 1.2 1 2.8 1.2 2.3 0.3 2.7 0.8 3 4.1 0.3 3.2 0 3.7 -1.8 3.7 -1.7 0 -2.1 0.4 -1.5 1.8 0.4 0.9 1.2 4.5 1.7 8 1 5.5 1.3 6.2 3.4 6.2 2.1 0 2.4 0.5 2.4 4 0 2.2 -0.4 4 -1 4 -0.5 0 -1 0.9 -1 2 0 1.6 -0.7 2 -3.6 2 l-3.7 0 0.5 -4.5 0.6 -4.5 -5.4 0 c-3 0 -5.4 -0.4 -5.4 -0.9 0 -0.5 -0.9 -1.3 -2 -1.6 -1.1 -0.3 -2 -1.3 -2 -2.1 0 -0.9 -1.1 -1.4 -2.9 -1.4 -2.4 0 -2.8 0.3 -2.4 2 0.3 1.1 1.4 2 2.4 2 1.5 0 1.9 0.7 1.9 3.5 0 1.9 -0.4 3.5 -1 3.5 -0.5 0 -1 1.4 -1 3 0 2.7 0.3 3 3 3 2 0 3 0.5 3 1.5 0 0.8 0.9 1.5 2 1.5 1.5 0 2 0.7 2 2.5 0 2.3 0.4 2.5 4.6 2.5 2.5 0 5.3 0.4 6.3 0.9 1 0.6 2.3 0.6 3.2 0 1.1 -0.7 0.9 -0.9 -0.8 -0.9 -2 0 -2.3 -0.5 -2.3 -4.1 l0 -4 3.8 0.3 c3.5 0.3 3.7 0.5 4 4.1 l0.3 3.7 7.2 0 c9.4 0.1 10.9 1.2 10.5 7.7 -0.2 4 -0.6 4.8 -2.4 5.1 -1.8 0.3 -2.2 1.2 -2.8 6.4 -0.3 3.4 -0.6 9.4 -0.6 13.4 l0 7.4 -4.2 0 c-7.5 -0.1 -8.3 -1.5 -8 -13.6 0.1 -5.8 -0.2 -11.3 -0.8 -12.2 -0.6 -1.2 -0.9 2.6 -1 12.1 l0 13.7 -10.5 0 c-7.1 0 -10.5 -0.4 -10.5 -1.1 0 -0.8 -0.5 -0.8 -1.5 0.1 -0.8 0.7 -1.5 2.3 -1.5 3.6 0 1.7 -0.6 2.4 -2 2.4 -1.4 0 -2 0.7 -2 2.3 0 5.2 -1.1 6.7 -4.6 6.7 -2.2 0 -3.7 -0.6 -4 -1.5z m-28.4 -30.5 c0 -4.5 -0.4 -6 -1.4 -6 -2.7 0 -3.7 7.4 -1.1 8.4 0.8 0.3 1.5 1.2 1.5 2.1 0 0.8 0.2 1.5 0.5 1.5 0.3 0 0.5 -2.7 0.5 -6z m-17.4 -8.7 c-1.1 -1.1 -1.7 0.4 -0.9 2.3 0.7 1.8 0.8 1.8 1.1 0.1 0.2 -1 0.1 -2.1 -0.2 -2.4z m16.4 -10.2 c0 -3.5 -0.2 -3.8 -2.1 -3.4 -1.2 0.4 -1.8 1.1 -1.5 2 0.3 0.8 0.6 2.3 0.6 3.4 0 1 0.7 1.9 1.5 1.9 1.1 0 1.5 -1.1 1.5 -3.9z m32.3 -3.9 c3 -0.2 3.7 -0.6 3.7 -2.2 0 -1.3 -0.7 -2 -2 -2 -1.1 0 -2 0.7 -2 1.5 0 1 -1.1 1.5 -3.5 1.5 -3.3 0 -3.5 -0.2 -3.5 -3.5 0 -3 0.3 -3.5 2.4 -3.5 1.9 0 2.5 -0.7 3 -3.2 0.4 -1.9 0.2 -3.4 -0.4 -3.6 -0.5 -0.2 -1 -1 -1 -1.8 0 -0.8 -0.8 -1.4 -1.7 -1.3 -1.1 0 -1.3 0.3 -0.5 0.6 0.7 0.2 1.2 2.2 1.2 4.4 0 3.8 -0.1 3.9 -3.5 3.9 -2.2 0 -3.8 -0.6 -4.1 -1.5 -0.4 -0.8 -1.2 -1.5 -2 -1.5 -1 0 -1.4 -1.3 -1.4 -4.1 0 -3.6 -0.2 -4 -1.5 -2.9 -0.8 0.7 -1.5 2.1 -1.5 3.1 0 1 -0.8 2.3 -1.7 2.8 -1.6 0.9 -1.6 1 0.5 1.1 1.5 0 2.2 0.6 2.2 2 0 1.6 0.7 2 3 2 2.8 0 3 0.3 3 3.5 0 3.3 -0.2 3.5 -3.5 3.5 -1.9 0 -3.5 0.3 -3.5 0.8 0 0.6 7.5 0.8 18.3 0.4z"/>
  <path d="M85 198.1 l0 -4.1 4.6 0 4.5 0 -0.3 3.8 c-0.3 3.6 -0.4 3.7 -4.5 4 l-4.3 0.3 0 -4z"/>
  <path d="M53.7 144.3 c-0.4 -0.3 -0.7 -2.1 -0.7 -4 0 -3.2 0.1 -3.3 4 -3.3 l4 0 0 4 c0 3.9 -0.1 4 -3.3 4 -1.9 0 -3.7 -0.3 -4 -0.7z"/>
  <path d="M66 138 l0 -7 4.5 0 c5 0 4.9 -0.2 3.9 8.8 l-0.7 5.2 -3.8 0 -3.9 0 0 -7z"/>
  <path d="M177 139.5 c0 -3.3 0.2 -3.5 3.5 -3.5 3.3 0 3.5 0.2 3.5 3.5 0 3.3 -0.2 3.5 -3.5 3.5 -3.3 0 -3.5 -0.2 -3.5 -3.5z"/>
  <path d="M185 129.5 c0 -2.4 -0.5 -3.5 -1.5 -3.5 -1.1 0 -1.5 -1.1 -1.5 -4 l0 -4 4 0 4 0 0 4 c0 2.2 0.5 4 1 4 0.6 0 1 1.6 1 3.5 0 3.3 -0.2 3.5 -3.5 3.5 -3.3 0 -3.5 -0.2 -3.5 -3.5z"/>
  <path d="M63 128.5 c0 -0.9 -0.9 -1.5 -2.5 -1.5 -2.2 0 -2.5 -0.4 -2.5 -3.5 0 -2.4 -0.5 -3.5 -1.5 -3.5 -1.2 0 -1.5 -1.5 -1.5 -7.5 0 -4.3 0.4 -7.5 1 -7.5 0.6 0 1 -1.3 1 -3 0 -2.8 0.3 -3 3.5 -3 2.8 0 3.5 -0.4 3.5 -2 0 -1.6 0.7 -2 3.6 -2 l3.6 0 -0.6 7.8 c-1.1 12.1 -1.4 13 -4.4 13.5 -2.1 0.3 -1.9 0.4 1.1 0.6 2.7 0.1 3.7 -0.3 3.7 -1.4 0 -1.1 1.1 -1.5 4.1 -1.5 l4 0 -0.3 3.8 c-0.3 3.3 -0.6 3.7 -3.3 4 -3.5 0.4 -4.5 1.6 -4.5 5.5 0 2.5 -0.3 2.7 -4 2.7 -2.9 0 -4 -0.4 -4 -1.5z"/>
  <path d="M167 112.5 c0 -3.3 0.2 -3.5 3.5 -3.5 3.3 0 3.5 0.2 3.5 3.5 0 3.3 -0.2 3.5 -3.5 3.5 -3.3 0 -3.5 -0.2 -3.5 -3.5z"/>
  <path d="M77 102.5 l0 -6.5 4 0 c4.4 0 4.5 0.1 3.4 8.4 -0.6 4.4 -0.8 4.6 -4 4.6 l-3.4 0 0 -6.5z"/>
  <path d="M86 105 c0 -3.9 0.1 -4 3.5 -4 3.4 0 3.5 0.1 3.5 4 0 3.9 -0.1 4 -3.5 4 -3.4 0 -3.5 -0.1 -3.5 -4z"/>
  <path d="M175 85.1 l0 -4.1 4.1 0 4 0 -0.3 3.8 c-0.3 3.5 -0.5 3.7 -4 4 l-3.8 0.3 0 -4z"/>
  <path d="M72 70.9 l0 -4 3.8 0.3 c3.5 0.3 3.7 0.5 4 4.1 l0.3 3.7 -4 0 -4.1 0 0 -4.1z"/>
  <path d="M114.2 51.3 l0.3 -3.8 5 0 5 0 0.3 3.8 0.3 3.7 -5.6 0 -5.6 0 0.3 -3.7z"/>
 </g>
 <g fill="#1c3144">
  <path d="M119.5 246.8 c-1.1 -0.6 -4.5 -3.1 -7.5 -5.4 -6.6 -5.2 -15.1 -9.2 -21.1 -10 -2.6 -0.3 -7.1 0.1 -11.2 1 -13 3 -21.1 -1.6 -25.6 -14.9 -3.7 -11.1 -6.9 -14.8 -15.9 -19 -4.2 -2 -9.5 -4.5 -11.7 -5.6 -6 -2.9 -9.5 -8.8 -9.4 -15.9 0 -3 0.4 -7.7 0.9 -10.5 1.7 -10.1 -1.2 -17.9 -10.7 -29.8 -4.5 -5.6 -6.3 -8.6 -6.3 -10.7 0 -2.8 4.1 -10.1 10.2 -18 6.5 -8.5 8.2 -17.4 5.8 -30 -2.2 -11.6 2.6 -18.9 15.7 -23.7 11.1 -4 17.8 -10.7 21.8 -21.8 5.1 -13.9 11.4 -18 24 -15.6 9 1.6 16.4 1.3 21 -0.8 2.2 -1 8.6 -4.8 14.2 -8.5 13.6 -8.8 14.8 -8.7 25.6 1.1 9 8.4 16.9 10.1 34.9 7.9 4.9 -0.6 7.6 -0.5 9.8 0.4 3.3 1.4 10 8.5 10 10.7 0 2.4 5.6 13.7 8.3 16.9 2.4 2.9 5.2 4.5 21.2 12 3 1.5 6 3.8 7.5 6 2.2 3.3 2.4 4.5 2.1 11.3 -1.2 24.3 -0.7 26.4 7.6 35.4 9.5 10.2 9.7 19 0.6 29.9 -2.5 2.9 -5.6 7.7 -7 10.7 -2.4 5 -2.5 6 -1.8 14.5 1.1 13 0.9 18 -0.9 21.4 -2 3.9 -6.7 7.7 -11.3 9.3 -12.3 3.9 -20.4 11.5 -24.8 22.9 -4.8 12.6 -12.4 16.6 -26.8 14.2 -3.7 -0.7 -7.8 -1.2 -9.2 -1.2 -4.4 0 -11.9 3.2 -16.3 6.9 -9.5 8 -13.2 10.1 -17.6 10.1 -2.2 0 -5 -0.6 -6.1 -1.2z m18.7 -51.7 c-0.4 -1 -0.7 -1 -1.4 0.4 -0.5 0.9 -0.7 2.4 -0.3 3.3 0.6 1.5 0.8 1.5 1.5 -0.3 0.4 -1.1 0.5 -2.6 0.2 -3.4z m-26.8 -7.3 c-0.4 -1.5 0.1 -1.8 2.5 -1.8 1.8 0 3.1 -0.5 3.1 -1.2 0 -0.9 0.4 -0.8 1 0.2 1.6 2.5 6.2 -0.8 7.9 -5.6 1.4 -3.9 1.3 -4.3 -0.7 -6.4 -1.2 -1.3 -2.2 -2.9 -2.2 -3.4 0 -0.6 0.4 -0.5 0.8 0.2 0.6 0.9 1.2 0.5 2 -1.3 1.9 -4.1 1.5 -8.2 -0.8 -8.8 -1.2 -0.3 -1.8 -1.1 -1.5 -1.9 1 -2.5 -3 -4.9 -8.8 -5.4 -3.4 -0.3 -5.8 0 -6.2 0.7 -0.4 0.5 -0.6 7.1 -0.6 14.5 0.2 11.3 0 13.3 -1.3 12.8 -0.7 -0.3 -1.7 0 -2.1 0.6 -0.6 0.9 -0.9 0.9 -1.5 0.1 -0.4 -0.7 -2 -1.3 -3.5 -1.5 -1.6 -0.2 -3 -0.8 -3.1 -1.5 -0.1 -0.6 0 -0.7 0.2 -0.2 0.3 0.5 1.4 0.7 2.4 0.4 1.1 -0.3 1.7 -0.9 1.4 -1.4 -0.3 -0.5 -1 -0.7 -1.5 -0.4 -0.5 0.4 -0.9 -1.9 -0.9 -5.3 0 -4.8 -0.4 -6.2 -2 -7.3 -2.8 -2 -3.5 -6.2 -1.4 -8.3 1.9 -2 0.6 -4.3 -2 -3.3 -1.4 0.5 -1.6 3 -1.6 16.1 0 17.7 0 17.6 8.5 17.6 3.8 0 4.8 -0.4 5.2 -2 0.6 -2.4 1.9 -2.5 4 -0.5 1.4 1.4 1.4 1.8 -0.1 3.4 -1.7 1.9 -2 3.9 -1 6.6 0.6 1.4 1 1.2 2.5 -1.2 1 -1.5 1.6 -3.6 1.3 -4.5z m31.6 2.2 c0 -0.5 -1.2 -1 -2.6 -1 -1.4 0 -2.3 0.4 -1.9 1 0.3 0.6 1.5 1 2.6 1 1 0 1.9 -0.4 1.9 -1z m0.8 -4.5 c0.6 -0.3 1.2 -1.4 1.2 -2.5 0 -1.2 -0.4 -1.9 -0.9 -1.6 -0.5 0.3 -1.2 -0.1 -1.5 -1 -0.4 -1.1 -1.4 -1.5 -3.1 -1.1 -1.4 0.2 -2.8 0 -3.2 -0.6 -0.3 -0.6 -0.1 -0.7 0.5 -0.3 0.8 0.5 1.2 -0.1 1.2 -1.8 0 -2 0.6 -2.5 2.8 -2.8 2.1 -0.2 2.7 -0.9 2.9 -2.8 l0.2 -2.5 -0.8 2.5 c-0.9 2.4 -0.9 2.3 -1 -0.9 -0.1 -3 -0.3 -3.3 -2.7 -2.8 -2.2 0.4 -2.5 0.2 -2 -1.7 0.3 -1.1 0.6 -3.1 0.6 -4.3 0 -1.7 0.7 -2.2 3.3 -2.5 3.9 -0.4 4.9 -3.6 1.6 -5.6 -1.9 -1.2 -10.5 -2 -11.4 -1 -0.7 0.6 -1.2 16.8 -0.6 16.8 0.4 0 1.1 -0.4 1.7 -0.9 0.5 -0.6 1.4 -0.4 2.2 0.5 0.7 0.8 0.8 1.4 0.2 1.4 -0.5 0 -1 1 -1.1 2.3 l0 2.2 -1 -2.3 c-1.4 -3.7 -2.5 -1.8 -2.2 4 0.1 2.9 0.2 5.8 0.3 6.5 0 0.6 1 1.5 2.1 1.8 1.6 0.5 1.8 0.9 0.9 1.5 -1.2 0.7 7.1 0.3 9.8 -0.5z m-70.4 -1.1 c0.4 -0.9 0.4 -1.9 0.1 -2.2 -0.2 -0.3 -0.7 0.3 -1.1 1.2 -0.3 0.9 -1.3 1.6 -2.1 1.6 -1.1 0 -0.7 -0.6 1 -2 2.7 -2.1 5.7 -2.7 5.7 -1 0 1.4 2.7 1.2 3.3 -0.2 0.3 -0.8 0.6 -0.6 0.6 0.5 0.1 1.9 5 4.3 6.2 3 0.4 -0.4 0.2 -1.9 -0.4 -3.3 -1 -2.5 -1.2 -3.4 -1.5 -9.7 -0.1 -1.7 -0.9 -3.8 -1.7 -4.6 -0.8 -0.8 -1.1 -1.7 -0.8 -2.1 0.3 -0.3 -0.1 -2.3 -1 -4.3 -0.8 -2.1 -1.8 -5 -2.1 -6.5 -0.4 -1.9 -1.3 -2.8 -2.6 -2.8 -2.4 0 -2.8 0.6 -4.6 7.7 -4.1 15.9 -5.5 23.5 -4.3 24.9 1.6 1.9 4.5 1.8 5.3 -0.2z m83.6 0.6 c0 -1.2 -0.8 -1.2 -3.5 0 -1.8 0.8 -1.7 0.9 0.8 0.9 1.5 0.1 2.7 -0.3 2.7 -0.9z m10 -4.4 c0 -3.8 -0.6 -6 -2 -7.9 -1.8 -2.3 -1.8 -2.5 -0.2 -2.1 1.5 0.4 1.8 -0.3 2 -5.4 0.3 -5.5 0.1 -6.2 -3 -9.4 -2.9 -3 -4 -3.5 -8.4 -3.7 -4 -0.1 -5.3 0.3 -5.8 1.5 -0.8 2.1 -0.9 28.1 -0.1 29.4 0.3 0.6 1.5 1 2.6 1 1.5 0 1.9 -0.7 2 -3.7 l0.2 -3.8 0.7 3.5 0.7 3.5 0.2 -4.5 c0.3 -8.8 3.6 -9.5 4 -0.8 0.3 6 1.3 7.8 4.7 7.8 2.2 0 2.4 -0.4 2.4 -5.4z m14.1 -3.8 c0 -5.1 0.1 -11.4 0.3 -14 0.2 -2.6 -0.1 -4.5 -0.5 -4.2 -0.5 0.3 -0.9 0 -0.9 -0.5 0 -1.4 1.3 -1.4 2.7 0 1.5 1.5 4.3 0.4 4.3 -1.7 0 -2.9 -3.2 -4.3 -9.5 -4.4 -3.3 0 -6.5 0.4 -7.1 0.8 -1.4 0.9 -1.4 4.2 -0.1 4.2 0.5 0 1.8 1 2.9 2.2 1.6 1.9 1.8 3.7 1.7 13 -0.1 9.6 0.1 11.1 1.7 12.3 3.9 2.9 4.4 2 4.5 -7.7z m-83.1 -18 l-0.4 -5.3 -0.6 4.5 c-0.3 2.5 -0.1 4.8 0.5 5.2 0.6 0.4 1 0.8 1 0.8 0 0 -0.2 -2.4 -0.5 -5.2z m7.1 1.9 c-0.1 -1.2 -1.5 -0.9 -1.9 0.4 -0.3 0.6 0.1 1 0.8 0.8 0.6 -0.3 1.1 -0.8 1.1 -1.2z m-9.5 -3.4 c-1.1 -1.1 -1.9 0.6 -1.1 2.4 0.8 1.7 0.8 1.7 1.2 0 0.3 -1 0.2 -2.1 -0.1 -2.4z m12.6 -8.5 c-0.9 -0.9 -1.2 -0.7 -1.2 1.2 0 1.9 0.3 2.1 1.2 1.2 0.9 -0.9 0.9 -1.5 0 -2.4z m37.8 -3.8 c0 -0.5 -0.7 -1 -1.5 -1 -0.8 0 -1.5 0.5 -1.5 1 0 0.6 0.7 1 1.5 1 0.8 0 1.5 -0.4 1.5 -1z m-35 -2.6 c1.2 -3.1 1.3 -4.4 0.2 -4.4 -0.9 0 -3.2 4.4 -3.2 6 0 2 2.1 0.9 3 -1.6z m29 -6.6 c0 -1 -0.4 -1.8 -1 -1.8 -0.5 0 -1 0.9 -1 1.9 0 1.1 -0.3 2.8 -0.6 3.8 -0.5 1.6 -0.4 1.6 1 -0.1 0.9 -1.1 1.6 -2.8 1.6 -3.8z m-25.4 -5.5 c0.3 -1 0.9 -2.5 1.4 -3.4 1.7 -3.2 5 -19.1 4.4 -21.3 -0.4 -1.6 0 -2.5 1 -2.9 2 -0.8 2.1 -2.7 0.1 -2.7 -0.8 0 -1.5 -0.7 -1.5 -1.5 0 -0.9 0.7 -1.8 1.5 -2.1 0.8 -0.4 1.5 -1.5 1.5 -2.5 0 -1 0.5 -1.9 1 -1.9 0.6 0 1 -0.5 1 -1.1 0 -0.6 0.9 -1.8 1.9 -2.7 1.3 -1.1 2.1 -3.4 2.4 -6.9 0.6 -7.2 -0.6 -6.7 -2.2 0.8 -1.1 5.6 -1.3 6 -2.6 4.3 -1.3 -1.7 -1.4 -1.7 -1.5 -0.2 0 0.9 -0.5 2 -1.2 2.4 -0.8 0.5 -0.9 0.2 -0.5 -1 2.4 -6.1 2.2 -6.6 -2.4 -6.6 -2.4 0 -5.1 -0.5 -5.9 -1 -1.1 -0.7 0.3 -1 4.8 -1 5.2 0 6.2 -0.3 6.2 -1.7 0 -1 0.5 -2.5 1.1 -3.3 0.8 -1.1 0.9 -0.8 0.4 1.5 -0.6 2.9 -0.6 2.9 1.4 1.1 2.9 -2.7 2.8 -6.6 -0.1 -6.5 -2.6 0.1 -6.1 1.3 -5.7 1.9 0.2 0.3 -0.2 1.4 -0.8 2.4 -0.9 1.6 -2.3 1.9 -7.8 2 -6.6 0.1 -6.9 0 -8.5 -2.9 -1.2 -2.1 -2.7 -3.2 -5.1 -3.6 -1.9 -0.4 -2.7 -0.7 -1.9 -0.8 1 -0.1 1.1 -0.4 0.3 -1.2 -1.7 -1.7 -5.3 -0.1 -5.3 2.3 0 1.7 0.2 1.8 1.5 0.8 1.2 -1 1.5 -0.9 1.5 0.6 0 1.1 1 5.5 2.1 9.9 1.1 4.4 2.4 9.9 2.8 12.3 0.5 2.4 1.3 4.8 1.9 5.4 0.7 0.7 1.2 2.1 1.2 3.3 -0.1 2.8 -4 -6.1 -4.2 -9.4 -0.1 -1.4 -0.5 -3 -0.9 -3.6 -0.3 -0.5 -1.5 -4.5 -2.5 -8.9 -1 -4.3 -2 -7.4 -2.1 -6.9 -0.2 0.5 1.8 9.7 4.3 20.4 2.6 10.6 4.9 21.4 5.2 23.8 0.2 2.5 1.1 5.2 2 6 1.4 1.5 1.5 1.4 0.8 -0.4 -1.2 -3.1 -1.6 -7.6 -0.6 -7 0.5 0.3 1.2 2.6 1.6 5.1 0.5 3.5 1.2 4.7 3 5.4 1.4 0.6 2.4 1.8 2.4 3 0 2.5 1.9 2.7 2.6 0.3z m12.1 -2.2 c-0.4 -1.7 0 -1.8 3.3 -1.4 3.4 0.5 3.8 0.3 4.8 -2.5 1 -2.9 1.4 -3.1 6.9 -3.5 l5.8 -0.3 -6.2 -0.2 c-3.5 -0.1 -6.3 -0.6 -6.3 -1.1 0 -1.4 12.3 -0.8 12.8 0.7 0.2 0.6 1.1 1.2 2 1.2 1.5 0 1.5 0.2 0.2 1 -1.3 0.9 -1.3 1.1 0 2 2 1.3 5.3 1.3 4.5 -0.1 -0.4 -0.6 0.2 -1.3 1.2 -1.5 1.8 -0.5 1.9 -0.8 0.4 -6.8 -0.9 -3.5 -2.2 -7.1 -3 -8 -0.8 -0.9 -1.1 -1.9 -0.7 -2.3 1.2 -1.3 3.4 3.2 5 10.4 2.1 9.5 2.1 9.1 -1.6 10.2 l-3.3 1 4 -0.2 c3.8 -0.2 4 -0.3 3.7 -3.2 -0.2 -1.6 -1.3 -6.1 -2.3 -10 -1.1 -3.8 -2.2 -7.9 -2.4 -9 -1.5 -8.4 -3.5 -15.9 -4.3 -16.7 -0.7 -0.7 -0.7 -1.9 -0.2 -3.4 0.5 -1.3 0.5 -2.6 0.1 -2.9 -0.5 -0.3 -1.5 -2.9 -2.2 -5.7 -0.7 -2.9 -1.4 -4.7 -1.7 -4 -0.2 0.7 0.4 3.7 1.3 6.7 1 3 1.5 6.2 1.1 7.1 -0.3 0.9 -0.2 2.2 0.3 2.8 1.2 1.4 4.5 14.6 3.8 15.2 -0.3 0.3 -1.3 -2.9 -2.3 -7 -1 -4.2 -2.1 -7.6 -2.5 -7.6 -0.4 0 -0.7 -1.5 -0.7 -3.2 0 -3.9 -3 -15.8 -4.3 -17.4 -0.5 -0.7 -2.3 -1.4 -3.9 -1.6 -2.7 -0.4 -3.1 -0.1 -4.4 3.6 -0.8 2.3 -2.1 7.4 -3.1 11.5 -0.9 4 -2.3 8.4 -3.2 9.7 -0.8 1.3 -1.3 3.1 -0.9 3.9 0.8 2.1 -1.3 11.5 -2.6 11.5 -0.6 0 -0.7 0.7 -0.4 1.6 0.3 0.9 0 4.4 -0.8 7.8 -1.5 6.2 -1.3 9.9 0.7 12.4 1.4 1.8 2 1.5 1.4 -0.7z m-4.5 -7.6 c0.9 -2 0.9 -2 -0.6 -0.1 -0.9 1.1 -1.6 2.7 -1.5 3.5 0 1.4 0.1 1.4 0.6 0.1 0.3 -0.8 1 -2.4 1.5 -3.5z m-55.3 -13.5 l0.1 -2.4 -2.1 2 c-1.8 1.9 -1.9 2.4 -0.8 4.3 1.3 1.9 1.4 1.9 2.1 0.3 0.3 -0.9 0.7 -2.8 0.7 -4.2z m-4.9 -3.5 c0 -0.8 -0.4 -1.5 -1 -1.5 -0.5 0 -1 0.7 -1 1.5 0 0.8 0.5 1.5 1 1.5 0.6 0 1 -0.7 1 -1.5z m98 -10 c0 -0.8 -0.4 -1.5 -1 -1.5 -0.5 0 -1 0.7 -1 1.5 0 0.8 0.5 1.5 1 1.5 0.6 0 1 -0.7 1 -1.5z m-40.7 -19.7 c0.7 -0.7 1.2 -2 1.2 -2.8 0 -0.9 1.2 -1.7 3 -2 4 -0.7 1.9 -1.9 -2.2 -1.3 -2.3 0.4 -3.3 1.1 -3.3 2.3 0 2.7 -2.3 4 -6.9 3.8 -2.2 -0.1 -4.4 0.2 -4.8 0.5 -0.3 0.4 2.2 0.7 5.6 0.7 3.7 0 6.7 -0.5 7.4 -1.2z m51.7 -1.3 c0 -0.8 -0.4 -1.5 -1 -1.5 -0.5 0 -1 0.7 -1 1.5 0 0.8 0.5 1.5 1 1.5 0.6 0 1 -0.7 1 -1.5z m-49.5 -21.5 c-0.3 -0.5 -1.2 -1 -2 -1 -0.8 0 -1.7 0.5 -2 1 -0.4 0.6 0.5 1 2 1 1.5 0 2.4 -0.4 2 -1z"/>
  <path d="M112.3 181.3 c0.9 -0.2 2.5 -0.2 3.5 0 0.9 0.3 0.1 0.5 -1.8 0.5 -1.9 0 -2.7 -0.2 -1.7 -0.5z"/>
  <path d="M113.1 175.3 l0.2 -3.8 0.7 3.5 0.7 3.5 0.4 -3.1 c0.4 -2.9 0.6 -3.1 2.9 -2.2 1.7 0.6 2.1 1.1 1.2 1.7 -0.7 0.4 -1 1.5 -0.6 2.4 0.5 1.4 0 1.7 -2.5 1.7 -2.9 0 -3.1 -0.2 -3 -3.7z"/>
  <path d="M96.3 170.5 c0 -3.3 0.2 -4.5 0.4 -2.7 0.2 1.8 0.2 4.5 0 6 -0.2 1.5 -0.4 0 -0.4 -3.3z"/>
  <path d="M113.3 165.4 c-0.3 -0.8 -0.3 -1.8 0.1 -2.1 0.3 -0.4 0.7 0.2 0.7 1.3 0.1 1 0.5 0.1 0.8 -2.1 0.5 -3.1 1 -4 2.6 -4 2.2 0 3.2 3.9 1.7 6.3 -1.3 1.9 -5.2 2.3 -5.9 0.6z"/>
  <path d="M75.6 174.3 c1.8 -1.4 2 -2.1 1.1 -5.5 -1.1 -4.5 -2.1 -4.8 -3.6 -1 -1 2.4 -1.1 2.4 -0.5 0.2 0.3 -1.4 0.6 -3.1 0.6 -3.8 0.1 -0.7 0.6 -1.1 1.2 -0.9 1.5 0.5 3.3 4.4 4.1 9 0.7 3.6 0.6 3.7 -2.1 3.7 -2.8 0 -2.8 0 -0.8 -1.7z"/>
  <path d="M78.6 164.4 c-0.4 -1.4 -0.5 -2.8 -0.3 -3.1 0.3 -0.2 0.8 0.8 1.1 2.3 0.4 1.4 0.5 2.8 0.3 3.1 -0.3 0.2 -0.8 -0.8 -1.1 -2.3z"/>
  <path d="M154.4 171.7 c0.1 -1.4 0.8 -2.2 2.1 -2.4 1.7 -0.2 1.7 -0.1 0.2 0.3 -1.1 0.3 -1.6 1.2 -1.3 2 0.3 0.7 0.1 1.6 -0.3 1.8 -0.5 0.3 -0.8 -0.4 -0.7 -1.7z"/>
  <path d="M154.4 165.7 c-0.9 -2.5 0 -8 1.4 -8.3 0.7 -0.1 0.8 0 0.2 0.3 -0.5 0.2 -0.9 2.3 -0.8 4.6 0.1 3.9 0.1 4 0.5 0.8 0.5 -4.1 3 -7.1 3.9 -4.8 0.3 0.8 0.4 3 0.2 4.9 -0.2 2.5 -0.8 3.4 -2.6 3.6 -1.3 0.2 -2.4 -0.3 -2.8 -1.1z"/>
  <path d="M165.3 163 c0 -2.5 0.2 -3.5 0.4 -2.2 0.2 1.2 0.2 3.2 0 4.5 -0.2 1.2 -0.4 0.2 -0.4 -2.3z"/>
  <path d="M162.3 160.7 c-0.1 -3 -0.1 -3.1 0.8 -0.8 0.5 1.4 0.6 2.8 0.2 3.2 -0.4 0.4 -0.9 -0.6 -1 -2.4z"/>
  <path d="M151.9 156.9 c0.4 -1.3 1.3 -2.4 2 -2.5 0.6 -0.1 0.7 0 0.1 0.3 -0.5 0.2 -1 1.1 -1 1.8 0 0.8 -0.4 1.7 -1 2 -0.6 0.4 -0.7 -0.2 -0.1 -1.6z"/>
  <path d="M177.3 176.5 c0 -2.7 0.2 -3.8 0.4 -2.2 0.2 1.5 0.2 3.7 0 5 -0.2 1.2 -0.4 0 -0.4 -2.8z"/>
  <path d="M177.1 159.3 c0 -1.2 -0.4 -3 -0.7 -4 -0.5 -1.4 -0.4 -1.5 0.5 -0.7 0.7 0.6 1.1 2.4 0.8 4 -0.3 2.1 -0.4 2.3 -0.6 0.7z"/>
  <path d="M110.3 120 c0.3 -1.1 0.1 -2.3 -0.4 -2.6 -0.5 -0.3 -0.9 -1.3 -0.8 -2.2 0 -1.2 0.4 -0.9 1.1 0.8 0.6 1.4 1 3.1 0.9 3.8 -0.1 0.6 0.3 1.2 0.9 1.2 0.5 0 1 -0.7 1 -1.5 0 -0.8 0.5 -1.5 1 -1.5 0.7 0 0.7 0.6 0 2 -1.4 2.7 -4.4 2.7 -3.7 0z"/>
  <path d="M103.6 114.2 c-0.3 -0.5 -0.8 -2.9 -1.1 -5.3 l-0.5 -4.4 1.5 5 c1.3 4.6 1.4 6.8 0.1 4.7z"/>
  <path d="M107.2 108.8 c-1.7 -6.6 -1.4 -10.6 0.4 -4.8 0.8 2.5 1.3 5.6 1.2 7 -0.3 1.9 -0.6 1.4 -1.6 -2.2z"/>
  <path d="M116.1 107.8 c-0.1 -0.9 0.4 -2.9 0.9 -4.3 0.8 -2 0.7 -3 -0.4 -4.1 -2.1 -2 -2.3 -1.8 -3 2.6 -0.6 3.8 -2.6 5.7 -2.6 2.4 0 -0.8 -0.5 -2.5 -1.2 -3.7 -0.7 -1.2 -1.3 -3.8 -1.3 -5.7 -0.1 -1.9 -0.5 -5 -1 -6.7 l-0.7 -3.3 5.1 0 5.1 0 0 3.9 c0 2.2 0.6 4.4 1.5 5.1 1.2 1 1.5 1 1.5 -0.4 0 -0.9 0.5 -1.6 1.1 -1.6 0.7 0 0.5 1 -0.5 2.5 -0.9 1.4 -1.8 4.2 -2 6.2 -0.5 4.3 -2.4 9.8 -2.5 7.1z m-1.1 -14.5 c0.3 0.3 0.6 -1.2 0.7 -3.4 0.1 -5.2 -1.4 -5 -2.7 0.4 -0.6 2.3 -1.5 5.2 -2 6.5 -0.6 1.4 -0.6 2.2 0 2.2 0.6 0 1 0.8 1.1 1.8 0 0.9 0.6 -0.5 1.2 -3.1 0.7 -2.7 1.4 -4.7 1.7 -4.4z"/>
  <path d="M103.7 93.3 c-0.4 -0.7 -2.8 -10.2 -4.1 -16.5 -0.2 -1 0 -1.8 0.5 -1.8 0.5 0 0.9 0.9 0.9 2 0 1.6 0.7 2 3.3 2.1 2.1 0.1 2.5 0.3 1.2 0.6 -3.3 0.8 -3.4 1.5 -2 7.8 1.3 5.5 1.4 7.8 0.2 5.8z"/>
  <path d="M129.7 125.2 c-0.4 -0.5 -1.6 -0.8 -2.7 -0.5 -1.4 0.4 -2 0 -2 -1 0 -2.4 1.7 -2.9 3.5 -1.1 1.5 1.5 1.7 1.5 3 -0.2 0.8 -1.1 1.5 -1.4 1.5 -0.8 0 1.8 -2.6 4.8 -3.3 3.6z"/>
  <path d="M151.9 119 c-1.1 -3 -2.1 -3.4 -8.1 -3.3 -1 0 -1.8 -0.4 -1.8 -0.9 0 -0.4 1.8 -0.8 4 -0.8 4.4 0 4.5 -0.2 2.9 -6.5 -0.6 -2.4 -0.9 -5 -0.7 -5.7 0.4 -1 3 7.6 4.3 14.5 0.3 1 0.7 2.7 1 3.8 1 3.1 -0.5 2.1 -1.6 -1.1z"/>
  <path d="M127.6 116 c0.6 -4 2.8 -11 3.6 -11 0.2 0 0.3 1.3 0.3 2.9 0 1.6 -0.3 2.7 -0.6 2.5 -0.6 -0.3 -1.9 1.9 -1.9 3.2 0 1 4.9 0.3 5.4 -0.8 0.5 -1 0.7 -1 1.2 0 0.3 0.6 1.2 1.2 1.9 1.2 0.8 0 1.6 0.4 1.9 0.8 0.3 0.5 -1.9 0.7 -4.8 0.4 -5.1 -0.4 -5.4 -0.3 -6.5 2.4 -1 2.6 -1 2.4 -0.5 -1.6z"/>
  <path d="M135.5 109 c-0.5 -0.8 0.5 -5.8 3.7 -17.5 l1.1 -4 2.3 9 c3.3 12.8 3.3 13 -2.1 13.3 -2.4 0.1 -4.7 -0.3 -5 -0.8z m4.4 -6.1 c1.2 -5.4 1.5 -10.6 0.5 -9.7 -0.9 0.9 -3.3 12.2 -2.8 13 0.3 0.5 0 0.8 -0.6 0.8 -0.6 0 -0.8 0.5 -0.5 1 1.1 1.8 2.3 0.1 3.4 -5.1z"/>
  <path d="M131.1 101.9 c-0.1 -0.8 1 -4.6 2.3 -8.5 1.4 -3.8 2.5 -6.2 2.5 -5.3 0.1 0.8 -1 4.6 -2.3 8.5 -1.4 3.8 -2.5 6.2 -2.5 5.3z"/>
  <path d="M144.6 89.1 c-1 -3.5 -1.5 -6.5 -1.2 -6.8 0.7 -0.7 3.9 10.4 3.4 11.9 -0.3 0.7 -1.2 -1.6 -2.2 -5.1z"/>
  <path d="M142.5 79 c-0.4 -1.2 -0.5 -2.4 -0.2 -2.7 0.3 -0.2 0.8 0.5 1.2 1.7 0.4 1.2 0.5 2.4 0.2 2.7 -0.3 0.2 -0.8 -0.5 -1.2 -1.7z"/>
  <path d="M138 76.1 c0 -0.6 0.6 -1.4 1.4 -1.8 0.8 -0.4 1.4 -1.5 1.3 -2.3 -0.1 -0.8 0.1 -1.6 0.6 -1.7 0.4 -0.2 0.7 -0.1 0.7 0.2 0 0.3 0 1.4 0 2.5 0 1 -0.9 2.4 -2 3 -1.3 0.7 -2 0.7 -2 0.1z"/>
 </g>
 <g fill="#010101">
  <path d="M74.6 297.4 c-1.2 -1.1 -1.6 -3.5 -1.6 -8.9 0 -8.2 1.3 -10.5 5.9 -10.5 3.3 0 5.1 1.6 5.1 4.7 0 2.8 -2.1 3 -3.8 0.3 -2 -3.3 -3.2 -1.3 -3.2 5.5 0 6.8 1.2 8.8 3.2 5.5 1.8 -2.8 3.8 -2.5 3.8 0.5 0 4.1 -6.3 6.1 -9.4 2.9z"/>
  <path d="M87 288.5 c0 -8.7 0.3 -10.5 1.5 -10.5 1 0 1.5 1 1.5 3 0 2.5 0.4 3 2.5 3 3.6 0 5.7 3.8 5.3 9.7 -0.2 3.6 -0.7 4.9 -2 5.1 -1.5 0.3 -1.8 -0.5 -1.8 -5.2 0 -5.5 -1.5 -8.1 -3.1 -5.5 -0.5 0.8 -0.9 3.5 -0.9 6.2 0 3.5 -0.4 4.7 -1.5 4.7 -1.2 0 -1.5 -1.8 -1.5 -10.5z"/>
  <path d="M101.7 297.2 c-1.9 -2.1 -2.2 -8.3 -0.7 -11.3 1.3 -2.3 6.2 -2.6 8.4 -0.3 0.9 0.8 1.6 2.6 1.6 4 0 2.1 -0.5 2.4 -3.5 2.4 -2.8 0 -3.5 0.4 -3.5 2 0 2.4 0.8 2.5 3.2 0.3 1.4 -1.2 2.1 -1.4 3 -0.5 0.9 0.9 0.7 1.6 -0.7 3.2 -2.3 2.5 -5.7 2.6 -7.8 0.2z m5.3 -9.2 c0 -0.5 -0.7 -1 -1.5 -1 -0.8 0 -1.5 0.5 -1.5 1 0 0.6 0.7 1 1.5 1 0.8 0 1.5 -0.4 1.5 -1z"/>
  <path d="M113 291.6 l0 -7.3 4.5 -0.1 c3.3 -0.1 4.3 0.2 3.9 1.2 -0.3 0.8 -1.4 1.6 -2.5 1.9 -1.6 0.4 -1.9 1.4 -1.9 6.1 0 4.9 -0.2 5.6 -2 5.6 -1.8 0 -2 -0.7 -2 -7.4z"/>
  <path d="M125.7 297.2 c-1.9 -2.1 -2.3 -8.3 -0.7 -11.3 2 -3.7 9 -1.9 9 2.3 0 2.2 -1.8 2.4 -2.6 0.3 -1.2 -3.1 -3.4 -1.6 -3.4 2.4 0 4.4 1.4 6.1 2.8 3.5 0.6 -1.1 1.6 -1.5 2.7 -1 1.6 0.6 1.6 0.8 0.3 2.9 -2 2.9 -5.9 3.3 -8.1 0.9z"/>
  <path d="M138.6 297.4 c-1.9 -1.9 -2.2 -10.4 -0.4 -12.2 1.7 -1.7 6.3 -1.5 7.8 0.3 1.8 2.1 1.8 9.8 0.1 11.8 -1.7 2.1 -5.5 2.2 -7.5 0.1z m4.9 -5.9 c0 -4.2 -1.9 -5.8 -3 -2.5 -0.9 2.9 0.3 7.2 1.8 6.7 0.7 -0.2 1.2 -2.1 1.2 -4.2z"/>
  <path d="M151 288.5 c0 -8.7 0.3 -10.5 1.5 -10.5 1.2 0 1.5 1.8 1.5 10.5 0 8.7 -0.3 10.5 -1.5 10.5 -1.2 0 -1.5 -1.8 -1.5 -10.5z"/>
  <path d="M158.8 297.9 c-2.2 -1.2 -2.5 -9.6 -0.5 -12.3 2 -2.7 6.9 -1.8 8.5 1.7 1.7 3.5 0.9 4.7 -3.4 4.7 -3.6 0 -4 0.5 -2.4 3 0.9 1.3 1.2 1.3 2.4 -0.2 1.7 -2.3 3.6 -2.3 3.6 0 0 3.7 -4.4 5.4 -8.2 3.1z"/>
  <path d="M171.7 298.3 c-1.3 -1.2 -0.7 -4.3 0.8 -4.3 0.8 0 1.5 0.5 1.5 1 0 0.6 0.7 1 1.5 1 2.4 0 1.7 -1.8 -1.4 -3.4 -6.9 -3.6 -3 -10.8 4.3 -8 2 0.8 2.1 4.4 0.2 4.4 -0.8 0 -1.8 -0.4 -2.1 -1 -0.8 -1.3 -2.5 -1.3 -2.5 0 0 0.5 1.3 1.6 2.9 2.4 5.5 2.9 4.7 8.6 -1.3 8.6 -1.8 0 -3.6 -0.3 -3.9 -0.7z"/>
  <path d="M104.4 280.4 c0.3 -0.9 0.6 -1.8 0.6 -2 0 -0.2 0.7 -0.4 1.5 -0.4 1.8 0 1.9 1.2 0.3 2.8 -1.7 1.7 -3.1 1.5 -2.4 -0.4z"/>
 </g>
</svg>